<svg width="20" height="20" viewBox="0 0 20 20" fill="none" xmlns="http://www.w3.org/2000/svg">
<g clip-path="url(#clip0_537_2908)">
<path d="M1.66675 10.0003C1.66675 6.07195 1.66675 4.10777 2.88714 2.88738C4.10752 1.66699 6.07171 1.66699 10.0001 1.66699C13.9285 1.66699 15.8926 1.66699 17.113 2.88738C18.3334 4.10777 18.3334 6.07195 18.3334 10.0003C18.3334 13.9287 18.3334 15.8929 17.113 17.1133C15.8926 18.3337 13.9285 18.3337 10.0001 18.3337C6.07171 18.3337 4.10752 18.3337 2.88714 17.1133C1.66675 15.8929 1.66675 13.9287 1.66675 10.0003Z" stroke="#252525" stroke-width="1.5"/>
<path d="M12.5 10L10 10M10 10L7.5 10M10 10L10 7.5M10 10L10 12.5" stroke="#252525" stroke-width="1.5" stroke-linecap="round"/>
</g>
<defs>
<clipPath id="clip0_537_2908">
<rect width="20" height="20" fill="white"/>
</clipPath>
</defs>
</svg>
