<svg width="21" height="20" viewBox="0 0 21 20" fill="none" xmlns="http://www.w3.org/2000/svg">
<path fill-rule="evenodd" clip-rule="evenodd" d="M10.5003 18.3333C6.57195 18.3333 4.60777 18.3333 3.38738 17.1129C2.16699 15.8925 2.16699 13.9284 2.16699 9.99999C2.16699 6.07162 2.16699 4.10743 3.38738 2.88704C4.60777 1.66666 6.57195 1.66666 10.5003 1.66666C14.4287 1.66666 16.3929 1.66666 17.6133 2.88704C18.8337 4.10743 18.8337 6.07162 18.8337 9.99999C18.8337 13.9284 18.8337 15.8925 17.6133 17.1129C16.3929 18.3333 14.4287 18.3333 10.5003 18.3333ZM10.5003 6.87499C10.8455 6.87499 11.1253 7.15481 11.1253 7.49999V9.37501H13.0003C13.3455 9.37501 13.6253 9.65483 13.6253 10C13.6253 10.3452 13.3455 10.625 13.0003 10.625H11.1253L11.1253 12.5C11.1253 12.8452 10.8455 13.125 10.5003 13.125C10.1551 13.125 9.87533 12.8452 9.87533 12.5V10.625H8.00033C7.65515 10.625 7.37533 10.3452 7.37533 10C7.37533 9.65483 7.65515 9.37501 8.00033 9.37501H9.87533L9.87533 7.49999C9.87533 7.15481 10.1551 6.87499 10.5003 6.87499Z" fill="#2A5BE8"/>
</svg>
