<svg width="20" height="20" viewBox="0 0 20 20" fill="none" xmlns="http://www.w3.org/2000/svg">
<path d="M11.4355 12.9475C11.4355 11.3596 11.4355 10.5657 11.9162 10.0724C12.3969 9.5791 13.1705 9.5791 14.7177 9.5791C16.2649 9.5791 17.0385 9.5791 17.5191 10.0724C17.9998 10.5657 17.9998 11.3596 17.9998 12.9475V14.6317C17.9998 16.2196 17.9998 17.0136 17.5191 17.5069C17.0385 18.0002 16.2649 18.0002 14.7177 18.0002C13.1705 18.0002 12.3969 18.0002 11.9162 17.5069C11.4355 17.0136 11.4355 16.2196 11.4355 14.6317V12.9475Z" stroke="#252525" stroke-width="1.5"/>
<path d="M2 7.05263C2 8.64052 2 9.43446 2.48065 9.92776C2.96131 10.4211 3.73491 10.4211 5.28212 10.4211C6.82932 10.4211 7.60292 10.4211 8.08358 9.92776C8.56423 9.43446 8.56423 8.64052 8.56423 7.05263V5.36842C8.56423 3.78053 8.56423 2.98659 8.08358 2.49329C7.60292 2 6.82932 2 5.28212 2C3.73491 2 2.96131 2 2.48065 2.49329C2 2.98659 2 3.78053 2 5.36842V7.05263Z" stroke="#252525" stroke-width="1.5"/>
<path d="M11.4358 4.52632C11.4358 3.74157 11.4358 3.3492 11.5607 3.03969C11.7273 2.62701 12.0467 2.29914 12.4488 2.1282C12.7504 2 13.1327 2 13.8974 2H15.5384C16.3031 2 16.6854 2 16.987 2.1282C17.3891 2.29914 17.7085 2.62701 17.8751 3.03969C18 3.3492 18 3.74157 18 4.52632C18 5.31106 18 5.70343 17.8751 6.01294C17.7085 6.42562 17.3891 6.75349 16.987 6.92443C16.6854 7.05263 16.3031 7.05263 15.5384 7.05263H13.8974C13.1327 7.05263 12.7504 7.05263 12.4488 6.92443C12.0467 6.75349 11.7273 6.42562 11.5607 6.01294C11.4358 5.70343 11.4358 5.31106 11.4358 4.52632Z" stroke="#252525" stroke-width="1.5"/>
<path d="M2 15.4736C2 16.2583 2 16.6507 2.12492 16.9602C2.29148 17.3729 2.61095 17.7008 3.01305 17.8717C3.31463 17.9999 3.69695 17.9999 4.46159 17.9999H6.10265C6.86728 17.9999 7.2496 17.9999 7.55118 17.8717C7.95329 17.7008 8.27276 17.3729 8.43932 16.9602C8.56423 16.6507 8.56423 16.2583 8.56423 15.4736C8.56423 14.6888 8.56423 14.2965 8.43932 13.987C8.27276 13.5743 7.95329 13.2464 7.55118 13.0755C7.2496 12.9473 6.86728 12.9473 6.10265 12.9473H4.46159C3.69695 12.9473 3.31463 12.9473 3.01305 13.0755C2.61095 13.2464 2.29148 13.5743 2.12492 13.987C2 14.2965 2 14.6888 2 15.4736Z" stroke="#252525" stroke-width="1.5"/>
</svg>
