<svg width="20" height="20" viewBox="0 0 20 20" fill="none" xmlns="http://www.w3.org/2000/svg">
<path opacity="0.5" d="M10.7998 12.7202C10.7998 11.0609 10.7998 10.2312 11.327 9.71569C11.8543 9.2002 12.7028 9.2002 14.3999 9.2002C16.0971 9.2002 16.9456 9.2002 17.4729 9.71569C18.0001 10.2312 18.0001 11.0609 18.0001 12.7202V14.4802C18.0001 16.1395 18.0001 16.9692 17.4729 17.4847C16.9456 18.0002 16.0971 18.0002 14.3999 18.0002C12.7028 18.0002 11.8543 18.0002 11.327 17.4847C10.7998 16.9692 10.7998 16.1395 10.7998 14.4802V12.7202Z" fill="#2A5BE8"/>
<path d="M2 7.28C2 8.93934 2 9.76901 2.52723 10.2845C3.05446 10.8 3.90302 10.8 5.60014 10.8C7.29726 10.8 8.14582 10.8 8.67305 10.2845C9.20028 9.76901 9.20028 8.93934 9.20028 7.28V5.52C9.20028 3.86066 9.20028 3.03098 8.67305 2.51549C8.14582 2 7.29726 2 5.60014 2C3.90302 2 3.05446 2 2.52723 2.51549C2 3.03098 2 3.86066 2 5.52V7.28Z" fill="#2A5BE8"/>
<path d="M10.7998 4.8C10.7998 3.93024 10.7998 3.49536 10.9368 3.15232C11.1195 2.69494 11.47 2.33155 11.911 2.14209C12.2418 2 12.6612 2 13.4999 2H15.3C16.1387 2 16.5581 2 16.8889 2.14209C17.3299 2.33155 17.6804 2.69494 17.8631 3.15232C18.0001 3.49536 18.0001 3.93024 18.0001 4.8C18.0001 5.66976 18.0001 6.10464 17.8631 6.44768C17.6804 6.90506 17.3299 7.26845 16.8889 7.45791C16.5581 7.6 16.1387 7.6 15.3 7.6H13.4999C12.6612 7.6 12.2418 7.6 11.911 7.45791C11.47 7.26845 11.1195 6.90506 10.9368 6.44768C10.7998 6.10464 10.7998 5.66976 10.7998 4.8Z" fill="#2A5BE8"/>
<path opacity="0.5" d="M2 15.1999C2 16.0697 2 16.5045 2.13702 16.8476C2.31972 17.305 2.67015 17.6684 3.11121 17.8578C3.44201 17.9999 3.86138 17.9999 4.70011 17.9999H6.50018C7.3389 17.9999 7.75827 17.9999 8.08907 17.8578C8.53014 17.6684 8.88056 17.305 9.06326 16.8476C9.20028 16.5045 9.20028 16.0697 9.20028 15.1999C9.20028 14.3301 9.20028 13.8953 9.06326 13.5522C8.88056 13.0948 8.53014 12.7314 8.08907 12.542C7.75827 12.3999 7.3389 12.3999 6.50018 12.3999H4.70011C3.86138 12.3999 3.44201 12.3999 3.11121 12.542C2.67015 12.7314 2.31972 13.0948 2.13702 13.5522C2 13.8953 2 14.3301 2 15.1999Z" fill="#2A5BE8"/>
</svg>
