<svg width="18" height="11" viewBox="0 0 18 11" fill="none" xmlns="http://www.w3.org/2000/svg">
<path d="M17.1 1.8H0.9C0.661305 1.8 0.432387 1.70518 0.263604 1.5364C0.0948212 1.36761 0 1.13869 0 0.9C0 0.661305 0.0948212 0.432387 0.263604 0.263604C0.432387 0.0948211 0.661305 0 0.9 0H17.1C17.3387 0 17.5676 0.0948211 17.7364 0.263604C17.9052 0.432387 18 0.661305 18 0.9C18 1.13869 17.9052 1.36761 17.7364 1.5364C17.5676 1.70518 17.3387 1.8 17.1 1.8ZM14.1 6H3.9C3.66131 6 3.43239 5.90518 3.2636 5.7364C3.09482 5.56761 3 5.3387 3 5.1C3 4.86131 3.09482 4.63239 3.2636 4.4636C3.43239 4.29482 3.66131 4.2 3.9 4.2H14.1C14.3387 4.2 14.5676 4.29482 14.7364 4.4636C14.9052 4.63239 15 4.86131 15 5.1C15 5.3387 14.9052 5.56761 14.7364 5.7364C14.5676 5.90518 14.3387 6 14.1 6ZM10.5 10.2H7.5C7.26131 10.2 7.03239 10.1052 6.8636 9.9364C6.69482 9.76761 6.6 9.5387 6.6 9.3C6.6 9.06131 6.69482 8.83239 6.8636 8.6636C7.03239 8.49482 7.26131 8.4 7.5 8.4H10.5C10.7387 8.4 10.9676 8.49482 11.1364 8.6636C11.3052 8.83239 11.4 9.06131 11.4 9.3C11.4 9.5387 11.3052 9.76761 11.1364 9.9364C10.9676 10.1052 10.7387 10.2 10.5 10.2Z" fill="#767474"/>
</svg>
