<svg width="20" height="20" viewBox="0 0 20 20" fill="none" xmlns="http://www.w3.org/2000/svg">
<path d="M7.49991 14.3751C7.15474 14.3751 6.87491 14.655 6.87491 15.0001C6.87491 15.3453 7.15474 15.6251 7.49991 15.6251H12.4999C12.8451 15.6251 13.1249 15.3453 13.1249 15.0001C13.1249 14.655 12.8451 14.3751 12.4999 14.3751H7.49991Z" fill="#252525"/>
<path fill-rule="evenodd" clip-rule="evenodd" d="M9.99984 1.04199C9.39562 1.04199 8.84435 1.20792 8.24091 1.48958C7.65677 1.76223 6.98127 2.16462 6.1347 2.66893L4.92169 3.39152C3.9891 3.94705 3.24596 4.38972 2.6833 4.81303C2.10245 5.25001 1.66649 5.7 1.3824 6.29259C1.09816 6.88548 1.02112 7.50599 1.04583 8.23019C1.06975 8.93118 1.19238 9.78337 1.34614 10.8519L1.58977 12.5451C1.78759 13.92 1.94457 15.011 2.1791 15.8605C2.42086 16.7361 2.76388 17.4311 3.38288 17.9641C4.00137 18.4967 4.74137 18.7349 5.64679 18.8484C6.52612 18.9587 7.63551 18.9587 9.03509 18.9587H10.9646C12.3641 18.9587 13.4736 18.9587 14.3529 18.8484C15.2583 18.7349 15.9983 18.4967 16.6168 17.9641C17.2358 17.4311 17.5788 16.7361 17.8206 15.8605C18.0551 15.011 18.2121 13.92 18.4099 12.5451L18.6535 10.8519C18.8073 9.78336 18.9299 8.93117 18.9538 8.23019C18.9786 7.50599 18.9015 6.88548 18.6173 6.29259C18.3332 5.7 17.8972 5.25001 17.3164 4.81303C16.7537 4.38972 16.0106 3.94705 15.078 3.39152L13.865 2.66893C13.0184 2.16462 12.3429 1.76223 11.7588 1.48958C11.1553 1.20792 10.6041 1.04199 9.99984 1.04199ZM6.74616 3.75967C7.62741 3.23471 8.2492 2.86517 8.7696 2.62227C9.27718 2.38535 9.64213 2.29199 9.99984 2.29199C10.3575 2.29199 10.7225 2.38535 11.2301 2.62227C11.7505 2.86517 12.3723 3.23471 13.2535 3.75967L14.4076 4.44712C15.3778 5.0251 16.0625 5.43394 16.5649 5.81191C17.0553 6.18084 17.3238 6.48611 17.4901 6.83297C17.6563 7.17953 17.7254 7.57813 17.7046 8.18757C17.6833 8.81244 17.5712 9.59725 17.4111 10.7095L17.1788 12.324C16.9734 13.7516 16.8266 14.7638 16.6157 15.5278C16.4095 16.2744 16.1614 16.7067 15.8012 17.0169C15.4404 17.3275 14.9728 17.5109 14.1973 17.6081C13.4048 17.7075 12.3738 17.7087 10.9216 17.7087H9.07811C7.62587 17.7087 6.59488 17.7075 5.80233 17.6081C5.02688 17.5109 4.55925 17.3275 4.19851 17.0169C3.83829 16.7067 3.59015 16.2744 3.38402 15.5278C3.17309 14.7638 3.02626 13.7516 2.82083 12.324L2.58853 10.7095C2.42848 9.59724 2.31643 8.81244 2.2951 8.18757C2.27431 7.57813 2.34341 7.17953 2.50956 6.83297C2.67585 6.48611 2.9444 6.18084 3.43478 5.81191C3.93718 5.43394 4.62186 5.0251 5.59212 4.44712L6.74616 3.75967Z" fill="#252525"/>
</svg>
