<svg width="29" height="29" viewBox="0 0 29 29" fill="none" xmlns="http://www.w3.org/2000/svg">
<path d="M27 25.0469V11.7656C27 11.5231 26.9435 11.2838 26.835 11.0669C26.7266 10.8499 26.5691 10.6612 26.375 10.5156L15.4375 2.3125C15.167 2.10965 14.8381 2 14.5 2C14.1619 2 13.833 2.10965 13.5625 2.3125L2.625 10.5156C2.43094 10.6612 2.27344 10.8499 2.16496 11.0669C2.05648 11.2838 2 11.5231 2 11.7656V25.0469C2 25.4613 2.16462 25.8587 2.45765 26.1517C2.75067 26.4448 3.1481 26.6094 3.5625 26.6094H9.8125C10.2269 26.6094 10.6243 26.4448 10.9174 26.1517C11.2104 25.8587 11.375 25.4613 11.375 25.0469V20.3594C11.375 19.945 11.5396 19.5475 11.8326 19.2545C12.1257 18.9615 12.5231 18.7969 12.9375 18.7969H16.0625C16.4769 18.7969 16.8743 18.9615 17.1674 19.2545C17.4604 19.5475 17.625 19.945 17.625 20.3594V25.0469C17.625 25.4613 17.7896 25.8587 18.0826 26.1517C18.3757 26.4448 18.7731 26.6094 19.1875 26.6094H25.4375C25.8519 26.6094 26.2493 26.4448 26.5424 26.1517C26.8354 25.8587 27 25.4613 27 25.0469Z" stroke="white" stroke-width="3.125" stroke-linecap="round" stroke-linejoin="round"/>
</svg>
