<svg width="26" height="26" viewBox="0 0 26 26" fill="none" xmlns="http://www.w3.org/2000/svg">
<path d="M7.0525 18.9475H9.7825L16.8675 11.8625L14.1375 9.1325L7.0525 16.2175V18.9475ZM17.6475 11.0825L18.5575 10.1725C18.8175 9.9125 18.9475 9.60917 18.9475 9.2625C18.9475 8.91583 18.8175 8.6125 18.5575 8.3525L17.6475 7.4425C17.3875 7.1825 17.0842 7.0525 16.7375 7.0525C16.3908 7.0525 16.0875 7.1825 15.8275 7.4425L14.9175 8.3525L17.6475 11.0825ZM13 26C11.2017 26 9.51167 25.6585 7.93 24.9756C6.34833 24.2927 4.9725 23.3666 3.8025 22.1975C2.6325 21.0275 1.70647 19.6517 1.0244 18.07C0.342333 16.4883 0.000866667 14.7983 0 13C0 11.2017 0.341467 9.51167 1.0244 7.93C1.70733 6.34833 2.63337 4.9725 3.8025 3.8025C4.9725 2.6325 6.34833 1.70647 7.93 1.0244C9.51167 0.342333 11.2017 0.000866667 13 0C14.7983 0 16.4883 0.341467 18.07 1.0244C19.6517 1.70733 21.0275 2.63337 22.1975 3.8025C23.3675 4.9725 24.294 6.34833 24.9769 7.93C25.6598 9.51167 26.0009 11.2017 26 13C26 14.7983 25.6585 16.4883 24.9756 18.07C24.2927 19.6517 23.3666 21.0275 22.1975 22.1975C21.0275 23.3675 19.6517 24.294 18.07 24.9769C16.4883 25.6598 14.7983 26.0009 13 26ZM13 23.4C15.9033 23.4 18.3625 22.3925 20.3775 20.3775C22.3925 18.3625 23.4 15.9033 23.4 13C23.4 10.0967 22.3925 7.6375 20.3775 5.6225C18.3625 3.6075 15.9033 2.6 13 2.6C10.0967 2.6 7.6375 3.6075 5.6225 5.6225C3.6075 7.6375 2.6 10.0967 2.6 13C2.6 15.9033 3.6075 18.3625 5.6225 20.3775C7.6375 22.3925 10.0967 23.4 13 23.4Z" fill="white"/>
</svg>
